<svg width="898" height="879" viewBox="0 0 898 879" fill="none" xmlns="http://www.w3.org/2000/svg">
<rect width="898" height="879" fill="#E5E5E5"/>
<g clip-path="url(#clip0)">
<rect width="898" height="879" fill="white"/>
<path d="M850 446C850 664.153 671.585 841 451.5 841C231.415 841 53 664.153 53 446C53 227.848 231.415 51 451.5 51C671.585 51 850 227.848 850 446Z" fill="#145A32"/>
<ellipse cx="748.5" cy="655.5" rx="19.5" ry="18.5" fill="white"/>
<ellipse cx="154.5" cy="655.5" rx="19.5" ry="18.5" fill="white"/>
<ellipse cx="454.5" cy="447" rx="310.5" ry="302" fill="white"/>
<rect x="457" y="184" width="15" height="429" fill="#145A32"/>
<rect x="457" y="609" width="26" height="13" fill="#145A32"/>
<path d="M472.044 607.519L483.288 607.657L525.925 688.395L514.681 688.257L472.044 607.519Z" fill="#145A32"/>
<path d="M518.315 680.727C531.856 684.731 505 706 487.567 706C470.133 706 456 696.477 456 684.731C456 672.984 462.968 698.984 480.401 698.984C497.835 698.984 518.315 668.98 518.315 680.727Z" fill="#145A32"/>
<ellipse cx="301" cy="622" rx="50" ry="32" fill="#145A32"/>
<path d="M574.352 179.398L586.093 190.514L347.435 634.642L336.96 621.043L574.352 179.398Z" fill="#145A32"/>
<mask id="path-11-inside-1" fill="white">
<path d="M335 620.5C335 631.822 324.677 641 298.463 641C272.25 641 251 631.822 251 620.5C251 609.178 272.25 600 298.463 600C324.677 600 335 609.178 335 620.5Z"/>
</mask>
<path d="M293 620.5C293 616.776 293.903 612.284 296.357 607.913C298.795 603.572 301.886 600.909 304.089 599.513C306.13 598.221 307.148 598.16 306.094 598.395C305.069 598.623 302.664 599 298.463 599V683C315.459 683 333.691 680.195 349.034 670.478C366.582 659.364 377 641.098 377 620.5H293ZM298.463 599C289.686 599 283.738 597.381 281.555 596.438C280.393 595.937 282.12 596.42 284.738 599.093C287.541 601.956 293 609.244 293 620.5H209C209 637.417 217.116 650.098 224.722 657.866C232.144 665.444 240.821 670.345 248.248 673.553C263.244 680.03 281.028 683 298.463 683V599ZM293 620.5C293 631.756 287.541 639.044 284.738 641.907C282.12 644.58 280.393 645.063 281.555 644.562C283.738 643.619 289.686 642 298.463 642V558C281.028 558 263.244 560.97 248.248 567.447C240.821 570.655 232.144 575.556 224.722 583.134C217.116 590.902 209 603.583 209 620.5H293ZM298.463 642C302.664 642 305.069 642.377 306.094 642.605C307.148 642.84 306.13 642.779 304.089 641.487C301.886 640.091 298.795 637.428 296.357 633.087C293.903 628.716 293 624.224 293 620.5H377C377 599.902 366.582 581.636 349.034 570.522C333.691 560.805 315.459 558 298.463 558V642Z" fill="white" mask="url(#path-11-inside-1)"/>
<path d="M476.827 184.451C476.827 194.35 490.998 201.162 499.155 205.083C504.816 207.804 507.579 209.132 500.692 209.132C497.525 209.132 493.895 209.781 490.088 210.462C473.684 213.393 454 216.911 454 171.654C454 152.974 500.484 152 517.293 152C534.103 152 502.421 184.451 476.827 184.451Z" fill="#145A32"/>
<path d="M476.827 184.451C476.827 194.35 490.998 201.162 499.155 205.083C504.816 207.804 507.579 209.132 500.692 209.132C497.525 209.132 493.895 209.781 490.088 210.462C473.684 213.393 454 216.911 454 171.654C454 152.974 500.484 152 517.293 152C534.103 152 502.421 184.451 476.827 184.451Z" stroke="black"/>
<path d="M517.003 615.709C517.003 615.709 414.19 616.606 414.19 576.222C414.19 535.837 485.762 550.205 487.978 503.081C490.935 440.167 362.783 527.761 368.028 419.62C373.274 311.48 554.073 390.005 540.084 329.877C526.096 269.75 343.451 353.881 351.242 255.391C357.293 178.899 462.042 147.933 478.885 174.173C495.729 200.414 387.962 198.853 387.962 247.314C387.962 295.775 581 247.763 581 337.505C581 427.248 351.718 358.549 394.956 438.915C418.143 482.013 517.003 408.403 517.003 495.453C517.003 582.504 452.657 530.453 451.958 576.222C451.258 621.991 517.003 615.709 517.003 615.709Z" fill="#145A32" stroke="#283C09"/>
<path d="M160.321 594.356C160.423 594.566 160.368 594.72 160.157 594.819L116.542 615.079C116.373 615.158 116.247 615.113 116.166 614.945L112.751 607.888C112.67 607.72 112.714 607.597 112.883 607.518L156.437 587.131C156.649 587.033 156.795 587.067 156.876 587.236L160.321 594.356Z" fill="white"/>
<path d="M152.391 577.899C152.525 578.247 152.439 578.478 152.133 578.592L107.472 595.257C107.122 595.387 106.88 595.278 106.745 594.93L104.479 589.051L126.078 568.409L100.875 578.144C100.525 578.274 100.275 578.143 100.124 577.752L97.6313 571.285C97.5306 571.024 97.6552 570.828 98.0052 570.698L142.732 554.009C142.995 553.911 143.168 553.972 143.252 554.189L145.467 559.937L125.675 580.207L149.122 570.974C149.472 570.844 149.722 570.975 149.873 571.367L152.391 577.899Z" fill="white"/>
<path d="M138.222 534.401C138.875 536.835 138.864 539.224 138.188 541.568C137.455 543.878 136.235 545.905 134.528 547.647C132.764 549.356 130.64 550.532 128.155 551.175L125.037 551.981C124.812 552.039 124.668 551.956 124.608 551.73L122.576 544.158C122.528 543.978 122.617 543.858 122.843 543.8L125.96 542.994C127.451 542.609 128.606 541.78 129.424 540.508C130.197 539.248 130.396 537.919 130.022 536.522C129.647 535.124 128.784 534.07 127.434 533.359C126.083 532.648 124.685 532.479 123.24 532.853C121.568 533.285 120.412 534.74 119.773 537.219C119.56 538.046 119.229 539.336 118.782 541.09C118.335 542.845 117.908 544.497 117.503 546.048C116.722 548.901 115.411 551.216 113.569 552.994C111.669 554.738 109.342 555.966 106.585 556.679C104.055 557.333 101.633 557.309 99.3186 556.606C96.9589 555.914 94.9257 554.729 93.219 553.049C91.5001 551.325 90.3263 549.291 89.6975 546.947C89.0566 544.558 89.0801 542.214 89.768 539.916C90.3985 537.584 91.5732 535.569 93.2919 533.871C94.9534 532.141 97.0266 530.954 99.5116 530.311L105.069 528.875C105.25 528.828 105.364 528.895 105.413 529.075L107.444 536.647C107.492 536.827 107.426 536.941 107.245 536.988L101.706 538.492C100.125 538.901 98.9703 539.73 98.2424 540.978C97.5144 542.227 97.3318 543.527 97.6946 544.879C98.0694 546.277 98.932 547.331 100.282 548.042C101.588 548.765 102.963 548.94 104.409 548.566C105.9 548.18 107.058 547.544 107.882 546.656C108.707 545.768 109.348 544.373 109.804 542.472C109.879 542.211 110.012 541.719 110.205 540.994C110.34 540.237 110.53 539.416 110.776 538.533C110.977 537.662 111.157 536.892 111.317 536.224C111.463 535.512 111.564 535.076 111.618 534.917C112.279 532.337 113.36 530.153 114.861 528.367C116.318 526.593 118.379 525.361 121.045 524.672C123.62 524.006 126.11 524.013 128.515 524.693C130.863 525.339 132.918 526.518 134.682 528.231C136.389 529.911 137.569 531.967 138.222 534.401Z" fill="white"/>
<path d="M131.48 507.449C131.51 507.633 131.409 507.743 131.179 507.779L91.7638 513.981L93.23 522.962C93.2676 523.192 93.1712 523.325 92.9407 523.362L85.1846 524.511C85.0002 524.54 84.893 524.462 84.8629 524.278L80.577 498.026C80.5394 497.795 80.6128 497.666 80.7972 497.637L88.5419 496.418C88.7724 496.382 88.9027 496.456 88.9328 496.64L90.4103 505.69L129.814 499.42C130.045 499.384 130.175 499.458 130.205 499.642L131.48 507.449Z" fill="white"/>
<path d="M128.177 483.315C128.197 483.547 128.09 483.673 127.858 483.692L79.9208 487.53C79.7347 487.545 79.6338 487.46 79.6181 487.274L78.9572 479.462C78.9415 479.276 79.0266 479.175 79.2127 479.16L127.138 475.182C127.37 475.164 127.494 475.247 127.51 475.433L128.177 483.315Z" fill="white"/>
<path d="M126.754 458.737C126.755 458.924 126.639 459.018 126.406 459.019L86.5067 459.285L86.5697 468.385C86.5713 468.618 86.4555 468.736 86.2221 468.737L78.3818 468.72C78.1952 468.721 78.1012 468.628 78.0999 468.442L77.9158 441.842C77.9142 441.609 78.0067 441.492 78.1934 441.49L86.0332 441.438C86.2666 441.437 86.3839 441.529 86.3852 441.716L86.4486 450.886L126.347 450.549C126.581 450.548 126.698 450.64 126.699 450.827L126.754 458.737Z" fill="white"/>
<path d="M128.926 422.185C128.688 424.647 127.841 426.864 126.384 428.838C124.881 430.807 123 432.319 120.742 433.374C118.488 434.382 116.083 434.768 113.527 434.529L78.6915 431.143C78.5057 431.126 78.4217 431.024 78.4397 430.839L79.1941 423.035C79.2121 422.849 79.314 422.765 79.4998 422.782L114.349 426.029C115.929 426.176 117.323 425.814 118.533 424.943C119.7 424.02 120.354 422.839 120.493 421.399C120.637 419.913 120.221 418.632 119.247 417.557C118.231 416.431 116.932 415.795 115.353 415.647L80.5035 412.401C80.3177 412.383 80.2337 412.282 80.2517 412.096L81.0061 404.292C81.0241 404.107 81.126 404.022 81.3118 404.04L116.174 407.147C118.776 407.39 121.086 408.237 123.102 409.691C125.122 411.098 126.659 412.905 127.711 415.112C128.768 417.272 129.173 419.63 128.926 422.185Z" fill="white"/>
<path d="M132.313 393.787C132.276 393.97 132.143 394.039 131.914 393.995L92.7511 386.36L90.9468 395.279C90.9005 395.508 90.7628 395.6 90.5338 395.555L82.8526 393.987C82.6694 393.951 82.5963 393.841 82.6333 393.659L87.9075 367.587C87.9538 367.358 88.0685 367.261 88.2517 367.297L95.9469 368.797C96.1759 368.842 96.2719 368.956 96.2349 369.139L94.4167 378.127L133.593 385.693C133.822 385.738 133.918 385.851 133.881 386.034L132.313 393.787Z" fill="white"/>
<path d="M142.005 358.367C141.257 360.774 139.968 362.799 138.138 364.443C136.277 366.029 134.153 367.123 131.768 367.724C129.338 368.311 126.893 368.237 124.434 367.501L103.197 361.069C100.739 360.333 98.6833 359.084 97.0315 357.323C95.3936 355.517 94.2827 353.431 93.6988 351.064C93.1148 348.697 93.1898 346.333 93.9236 343.971C94.6713 341.564 95.9533 339.561 97.7696 337.962C99.5859 336.363 101.68 335.285 104.052 334.728C106.437 334.127 108.86 334.195 111.318 334.931L132.597 341.229C135.055 341.966 137.126 343.243 138.809 345.062C140.461 346.823 141.601 348.894 142.229 351.274C142.827 353.597 142.752 355.961 142.005 358.367ZM133.89 355.938C134.306 354.601 134.129 353.282 133.361 351.98C132.562 350.62 131.469 349.733 130.084 349.318L108.805 343.02C107.33 342.578 105.933 342.671 104.614 343.299C103.295 343.927 102.414 344.954 101.971 346.38C101.541 347.762 101.689 349.097 102.412 350.385C103.091 351.66 104.191 352.525 105.711 352.98L126.968 359.345C128.443 359.787 129.87 359.678 131.247 359.019C132.58 358.346 133.461 357.319 133.89 355.938Z" fill="white"/>
<path d="M156.694 318.868C156.613 319.037 156.467 319.072 156.255 318.973L120.055 302.194L116.11 310.395C116.009 310.605 115.853 310.661 115.641 310.563L108.558 307.203C108.389 307.125 108.345 307.001 108.426 306.833L119.955 282.862C120.056 282.651 120.192 282.585 120.361 282.664L127.474 285.961C127.686 286.059 127.751 286.192 127.67 286.36L123.696 294.624L159.926 311.34C160.138 311.439 160.203 311.572 160.123 311.74L156.694 318.868Z" fill="white"/>
<path d="M167.687 297.32C167.59 297.479 167.44 297.5 167.239 297.382L125.788 273.002C125.627 272.908 125.595 272.781 125.692 272.621L137.37 253.424C137.467 253.265 137.616 253.244 137.817 253.362L144.581 257.327C144.742 257.421 144.774 257.548 144.677 257.707L137.219 269.967L146.64 275.49L154.098 263.23C154.195 263.07 154.324 263.038 154.485 263.132L161.345 267.073C161.506 267.167 161.538 267.294 161.441 267.454L153.947 279.773L164.515 285.968L172.009 273.649C172.106 273.489 172.255 273.469 172.457 273.587L179.341 277.622C179.502 277.717 179.534 277.844 179.437 278.003L167.687 297.32Z" fill="white"/>
<path d="M192.902 260.788C191.352 262.833 189.433 264.321 187.147 265.252C184.852 266.117 182.471 266.4 180.005 266.101C177.538 265.802 175.231 264.867 173.083 263.298L155.49 250.36C153.417 248.846 151.885 247.004 150.894 244.836C149.894 242.603 149.505 240.296 149.728 237.917C149.942 235.472 150.824 233.227 152.374 231.182C153.924 229.137 155.829 227.667 158.086 226.774C160.344 225.881 162.706 225.584 165.173 225.884C167.601 226.155 169.871 227.062 171.981 228.604L174.581 230.503C174.732 230.613 174.751 230.743 174.638 230.891L169.902 237.139C169.789 237.288 169.658 237.307 169.507 237.197L166.907 235.298C165.663 234.389 164.279 234.014 162.755 234.171C161.258 234.292 160.059 234.947 159.157 236.137C158.142 237.476 157.838 238.843 158.244 240.237C158.613 241.605 159.4 242.729 160.606 243.61L178.242 256.493C179.636 257.511 181.063 257.946 182.521 257.799C184.008 257.614 185.189 256.945 186.063 255.792C186.965 254.602 187.241 253.272 186.891 251.803C186.531 250.269 185.748 249.062 184.543 248.181L181.942 246.281C181.792 246.171 181.773 246.042 181.885 245.893L186.664 239.589C186.776 239.441 186.908 239.421 187.059 239.531L189.659 241.431C191.807 243 193.367 244.92 194.339 247.19C195.34 249.423 195.747 251.743 195.562 254.15C195.339 256.53 194.453 258.743 192.902 260.788Z" fill="white"/>
<path d="M205.835 243.669C205.58 243.941 205.331 243.967 205.089 243.748L169.715 211.79C169.439 211.54 169.428 211.278 169.684 211.006L173.999 206.416L202.541 216.316L182.278 198.429C182.001 198.178 182.007 197.9 182.295 197.594L187.042 192.545C187.233 192.341 187.468 192.364 187.744 192.615L223.17 224.619C223.377 224.807 223.401 224.986 223.241 225.156L219.022 229.644L191.637 221.17L210.647 237.734C210.924 237.984 210.918 238.263 210.63 238.569L205.835 243.669Z" fill="white"/>
<path d="M230.192 219.027C230.019 219.183 229.852 219.176 229.693 219.006L196.861 183.869C196.734 183.732 196.739 183.602 196.878 183.477L202.696 178.222C202.835 178.097 202.968 178.102 203.095 178.239L236.031 213.282C236.19 213.452 236.201 213.6 236.062 213.725L230.192 219.027Z" fill="white"/>
<path d="M254.103 199.979C252.067 201.541 249.823 202.469 247.373 202.761C244.93 202.989 242.558 202.632 240.259 201.692C237.959 200.751 235.981 199.24 234.324 197.159L220.775 180.031C219.177 178.023 218.186 175.842 217.804 173.489C217.429 171.071 217.664 168.744 218.508 166.509C219.36 164.208 220.805 162.277 222.841 160.714C224.877 159.152 227.102 158.238 229.516 157.974C231.93 157.71 234.287 158.048 236.587 158.989C238.857 159.893 240.806 161.367 242.434 163.412L244.44 165.931C244.556 166.077 244.54 166.207 244.392 166.32L238.172 171.093C238.024 171.207 237.892 171.19 237.776 171.044L235.77 168.525C234.811 167.321 233.575 166.593 232.063 166.341C230.588 166.062 229.258 166.377 228.073 167.286C226.74 168.308 226.085 169.546 226.109 170.998C226.103 172.414 226.565 173.706 227.495 174.875L241.099 191.96C242.174 193.311 243.435 194.108 244.881 194.351C246.364 194.566 247.68 194.233 248.828 193.352C250.012 192.443 250.63 191.234 250.681 189.725C250.74 188.151 250.304 186.779 249.374 185.611L247.368 183.092C247.252 182.946 247.268 182.816 247.416 182.703L253.691 177.887C253.839 177.774 253.972 177.79 254.088 177.936L256.094 180.455C257.75 182.536 258.748 184.8 259.085 187.246C259.46 189.664 259.239 192.009 258.424 194.281C257.58 196.517 256.14 198.416 254.103 199.979Z" fill="white"/>
<path d="M282.095 180.948C279.948 182.268 277.641 182.946 275.174 182.982C272.722 182.955 270.395 182.386 268.193 181.275C265.965 180.125 264.162 178.467 262.782 176.303L250.913 157.555C249.533 155.391 248.796 153.106 248.701 150.7C248.645 148.27 249.174 145.974 250.286 143.812C251.398 141.65 253.007 139.922 255.115 138.627C257.262 137.308 259.549 136.642 261.976 136.63C264.403 136.617 266.697 137.179 268.86 138.315C271.063 139.426 272.854 141.064 274.233 143.228L286.222 161.902C287.601 164.067 288.331 166.384 288.412 168.853C288.507 171.259 288.011 173.563 286.924 175.764C285.852 177.901 284.242 179.629 282.095 180.948ZM277.542 173.806C278.735 173.073 279.468 171.966 279.74 170.484C280.028 168.939 279.782 167.556 279.005 166.336L267.017 147.662C266.189 146.363 265.069 145.518 263.657 145.126C262.245 144.734 260.903 144.928 259.63 145.71C258.398 146.467 257.632 147.567 257.335 149.01C257.012 150.413 257.277 151.783 258.13 153.121L270.058 171.833C270.886 173.131 272.039 173.984 273.515 174.391C274.967 174.758 276.309 174.564 277.542 173.806Z" fill="white"/>
<path d="M304.69 165.487C304.476 165.578 304.321 165.517 304.227 165.303L285.018 121.218C284.943 121.047 284.991 120.926 285.163 120.853L297.19 115.687C299.535 114.643 301.927 114.289 304.368 114.624C306.852 114.941 309.105 115.837 311.129 117.311C313.134 118.743 314.652 120.634 315.684 122.984L323.763 141.378C324.851 143.856 325.244 146.375 324.942 148.935C324.62 151.453 323.713 153.737 322.218 155.789C320.724 157.84 318.718 159.423 316.201 160.539L304.69 165.487ZM308.77 154.412L312.767 152.72C314.357 152.047 315.446 150.928 316.032 149.362C316.661 147.778 316.638 146.217 315.963 144.679L307.856 126.221C307.255 124.854 306.224 123.897 304.761 123.351C303.322 122.744 301.924 122.753 300.568 123.377L296.083 125.351L308.77 154.412Z" fill="white"/>
<path d="M330.346 152.942C330.168 152.997 330.043 152.913 329.973 152.691L315.454 106.845C315.398 106.667 315.459 106.551 315.637 106.496L337.119 99.9072C337.298 99.8525 337.422 99.9363 337.493 100.159L339.871 107.629C339.927 107.807 339.867 107.924 339.688 107.978L325.969 112.186L329.281 122.592L343 118.384C343.178 118.329 343.296 118.391 343.353 118.569L345.819 126.086C345.875 126.263 345.814 126.38 345.636 126.434L331.85 130.663L335.565 142.336L349.351 138.107C349.53 138.053 349.654 138.137 349.725 138.359L352.145 145.963C352.202 146.141 352.141 146.257 351.962 146.312L330.346 152.942Z" fill="white"/>
<path d="M631.365 185.896C631.246 185.823 631.236 185.707 631.337 185.55L642.059 168.808L649.229 140.041C649.289 139.859 649.399 139.817 649.558 139.914L656.184 143.972C656.383 144.094 656.452 144.246 656.392 144.428L650.71 163.026L665.286 149.876C665.426 149.742 665.576 149.725 665.735 149.822L672.421 153.917C672.58 154.014 672.59 154.13 672.45 154.263L649.373 172.959L638.619 190.01C638.519 190.168 638.389 190.198 638.23 190.1L631.365 185.896Z" fill="white"/>
<path d="M656.966 200.152C656.822 200.033 656.826 199.885 656.978 199.708L688.349 163.257C688.471 163.116 688.603 163.104 688.747 163.223L706.063 177.543C706.207 177.662 706.203 177.81 706.051 177.987L700.946 183.937C700.824 184.078 700.691 184.09 700.548 183.971L689.489 174.826L682.378 183.113L693.436 192.258C693.58 192.377 693.591 192.507 693.47 192.649L688.373 198.696C688.251 198.838 688.118 198.849 687.975 198.73L676.862 189.541L668.885 198.837L679.997 208.027C680.141 208.146 680.137 208.294 679.985 208.471L674.788 214.527C674.667 214.669 674.534 214.68 674.39 214.561L656.966 200.152Z" fill="white"/>
<path d="M681.46 220.667C681.33 220.533 681.35 220.387 681.521 220.228L716.751 187.49C716.888 187.363 717.021 187.366 717.151 187.5L723.096 193.63C723.226 193.764 723.272 193.945 723.233 194.173L720.918 205.055L732.103 203.318C732.337 203.291 732.519 203.345 732.649 203.479L738.643 209.659C738.773 209.793 738.77 209.924 738.633 210.052L703.598 242.99C703.427 243.149 703.277 243.162 703.147 243.028L697.64 237.35C697.51 237.216 697.53 237.069 697.701 236.91L723.733 212.482L710.843 214.472L713.548 201.98L687.418 226.308C687.247 226.467 687.097 226.48 686.967 226.346L681.46 220.667Z" fill="white"/>
<path d="M708.499 249.359C708.357 249.174 708.379 249.012 708.567 248.874L747.285 220.346C747.435 220.235 747.566 220.253 747.68 220.401L755.875 231.054C758.492 234.457 759.506 237.917 758.914 241.434C758.351 244.987 756.27 248.098 752.671 250.766C750.01 252.739 747.306 253.931 744.56 254.34C741.813 254.749 739.275 254.511 736.945 253.625C734.615 252.738 732.696 251.315 731.188 249.354L727.944 245.138L713.774 255.643C713.586 255.781 713.421 255.758 713.279 255.574L708.499 249.359ZM734.749 240.094L737.992 244.31C738.903 245.494 740.248 246.094 742.027 246.111C743.872 246.138 745.713 245.47 747.55 244.108C749.012 243.024 749.913 241.746 750.253 240.275C750.592 238.803 750.236 237.383 749.183 236.015L745.883 231.84L734.749 240.094Z" fill="white"/>
<path d="M729.276 277.012C729.179 276.853 729.231 276.714 729.433 276.596L770.992 252.396C771.153 252.301 771.283 252.334 771.38 252.493L778.728 264.574C780.038 266.727 780.695 269.019 780.699 271.45C780.768 273.898 780.224 276.191 779.067 278.329C777.95 280.444 776.265 282.163 774.01 283.484C772.521 284.357 771.039 284.929 769.564 285.198C768.13 285.444 766.808 285.516 765.599 285.413C764.43 285.287 763.499 285.103 762.805 284.861C761.699 288.43 759.516 291.17 756.255 293.082L743.911 300.398C743.71 300.516 743.549 300.476 743.427 300.276L739.317 293.519C739.22 293.359 739.232 293.244 739.352 293.173L751.853 285.845C753.302 284.996 754.235 283.746 754.651 282.095C755.132 280.461 754.923 278.907 754.026 277.432L751.625 273.485L733.834 283.833C733.633 283.951 733.484 283.93 733.387 283.77L729.276 277.012ZM758.872 269.237L762 274.38C762.752 275.616 763.882 276.441 765.39 276.855C766.898 277.269 768.316 277.087 769.645 276.308C770.933 275.552 771.749 274.425 772.093 272.925C772.461 271.466 772.257 270.098 771.481 268.822L768.353 263.679L758.872 269.237Z" fill="white"/>
<path d="M747.318 307.666C747.239 307.497 747.305 307.364 747.517 307.267L791.318 287.411C791.488 287.334 791.612 287.38 791.692 287.549L801.287 307.867C801.367 308.036 801.3 308.169 801.088 308.265L793.952 311.513C793.782 311.59 793.658 311.544 793.578 311.375L787.45 298.399L777.511 302.923L783.639 315.899C783.718 316.067 783.673 316.19 783.503 316.268L776.334 319.607C776.164 319.685 776.039 319.639 775.959 319.47L769.802 306.431L758.652 311.505L764.81 324.544C764.889 324.713 764.823 324.846 764.611 324.942L757.347 328.248C757.177 328.325 757.053 328.279 756.973 328.111L747.318 307.666Z" fill="white"/>
<path d="M760.69 336.908C760.567 336.556 760.66 336.327 760.969 336.223L806.111 320.907C806.465 320.788 806.704 320.904 806.827 321.257L808.91 327.202L786.691 347.19L812.176 338.216C812.529 338.096 812.776 338.235 812.914 338.631L815.206 345.172C815.298 345.436 815.168 345.628 814.814 345.747L769.606 361.085C769.34 361.174 769.169 361.109 769.092 360.889L767.055 355.075L787.458 335.406L763.744 343.93C763.39 344.049 763.144 343.911 763.005 343.514L760.69 336.908Z" fill="white"/>
<path d="M771.578 369.371C771.526 369.144 771.613 369.005 771.841 368.954L818.816 358.65C818.998 358.61 819.11 358.68 819.152 358.862L822.164 371.602C822.787 374.092 822.719 376.498 821.961 378.817C821.214 381.183 819.935 383.212 818.122 384.906C816.356 386.59 814.22 387.71 811.714 388.267L792.104 392.629C789.462 393.217 786.9 393.117 784.42 392.33C781.985 391.533 779.883 390.208 778.114 388.355C776.346 386.501 775.129 384.238 774.464 381.565L771.578 369.371ZM781.825 375.482L782.801 379.711C783.189 381.394 784.106 382.672 785.553 383.545C787.01 384.464 788.559 384.741 790.199 384.376L809.878 379.999C811.336 379.675 812.463 378.851 813.258 377.526C814.11 376.237 814.346 374.87 813.964 373.425L812.794 368.666L781.825 375.482Z" fill="white"/>
<path d="M778.834 404.237C778.8 404.007 778.899 403.875 779.131 403.843L826.779 397.337C826.964 397.311 827.069 397.391 827.096 397.575L828.208 405.336C828.234 405.521 828.155 405.626 827.97 405.652L780.342 412.297C780.11 412.329 779.982 412.252 779.955 412.068L778.834 404.237Z" fill="white"/>
<path d="M781.409 421.873C781.399 421.686 781.511 421.587 781.744 421.576L829.781 419.311C829.967 419.301 830.065 419.39 830.075 419.576L830.518 428.105C830.528 428.291 830.443 428.459 830.264 428.608L821.366 435.432L830.925 441.331C831.118 441.462 831.22 441.62 831.23 441.806L831.677 450.405C831.686 450.591 831.598 450.689 831.411 450.698L783.389 453.243C783.156 453.255 783.034 453.167 783.025 452.981L782.614 445.081C782.605 444.895 782.716 444.796 782.949 444.784L818.601 442.929L807.593 436.121L817.842 428.319L782.183 430.034C781.95 430.046 781.829 429.959 781.819 429.772L781.409 421.873Z" fill="white"/>
<path d="M782.507 461.187C782.516 460.954 782.637 460.842 782.87 460.851L830.924 462.704C831.111 462.711 831.2 462.808 831.193 462.994L830.891 470.828C830.884 471.015 830.787 471.105 830.601 471.098L782.541 469.384C782.308 469.376 782.195 469.278 782.202 469.092L782.507 461.187Z" fill="white"/>
<path d="M781.678 479.065C781.7 478.88 781.827 478.8 782.059 478.827L829.833 484.326C830.018 484.348 830.1 484.451 830.078 484.636L827.447 506.952C827.425 507.137 827.298 507.216 827.066 507.19L819.276 506.305C819.091 506.284 819.009 506.18 819.031 505.995L820.712 491.744L809.861 490.511L808.181 504.762C808.159 504.947 808.055 505.03 807.87 505.008L800.002 504.185C799.817 504.164 799.735 504.061 799.757 503.875L801.446 489.554L789.274 488.171L787.585 502.492C787.563 502.677 787.436 502.757 787.205 502.73L779.276 501.829C779.09 501.808 779.008 501.705 779.03 501.52L781.678 479.065Z" fill="white"/>
<path d="M777.401 510.846C777.484 510.482 777.684 510.335 778.004 510.404L824.6 520.469C824.964 520.549 825.106 520.77 825.023 521.135L823.636 527.28L794.082 532.957L820.561 538.359C820.926 538.438 821.062 538.683 820.97 539.093L819.444 545.853C819.382 546.126 819.169 546.223 818.804 546.143L772.14 536.063C771.866 536.004 771.755 535.86 771.806 535.633L773.163 529.624L801.001 523.287L776.269 518.408C775.904 518.329 775.768 518.084 775.86 517.675L777.401 510.846Z" fill="white"/>
<path d="M767.073 550.406C767.133 550.229 767.274 550.177 767.496 550.249L805.445 562.574L808.351 553.95C808.425 553.729 808.573 553.655 808.795 553.727L816.23 556.215C816.407 556.272 816.466 556.39 816.407 556.566L807.912 581.774C807.837 581.995 807.711 582.076 807.534 582.019L800.077 579.597C799.855 579.525 799.774 579.401 799.834 579.224L802.762 570.534L764.791 558.276C764.569 558.204 764.488 558.079 764.547 557.902L767.073 550.406Z" fill="white"/>
<path d="M752.998 584.357C754.04 582.062 755.573 580.212 757.596 578.805C759.642 577.46 761.887 576.635 764.332 576.33C766.82 576.043 769.239 576.415 771.591 577.444L791.889 586.408C794.24 587.437 796.127 588.925 797.549 590.872C798.951 592.861 799.795 595.065 800.081 597.482C800.366 599.899 799.998 602.234 798.975 604.486C797.932 606.78 796.41 608.609 794.406 609.973C792.402 611.337 790.188 612.151 787.762 612.413C785.317 612.718 782.919 612.356 780.568 611.327L760.212 602.491C757.861 601.462 755.963 599.943 754.517 597.935C753.095 595.988 752.22 593.796 751.892 591.36C751.587 588.986 751.956 586.651 752.998 584.357ZM760.757 587.754C760.178 589.028 760.189 590.358 760.79 591.741C761.415 593.187 762.39 594.199 763.715 594.779L784.072 603.615C785.482 604.233 786.882 604.311 788.271 603.849C789.659 603.387 790.662 602.476 791.28 601.117C791.878 599.8 791.898 598.458 791.34 597.093C790.824 595.747 789.839 594.755 788.386 594.119L768.058 585.22C766.648 584.602 765.217 584.536 763.766 585.022C762.358 585.526 761.355 586.437 760.757 587.754Z" fill="white"/>
<path d="M371.112 140.232C370.928 140.266 370.804 140.172 370.74 139.948L357.535 93.8129C357.483 93.6339 357.549 93.5271 357.733 93.4925L379.852 89.3338C380.035 89.2993 380.159 89.3939 380.224 89.6177L382.388 97.1368C382.439 97.3158 382.373 97.4226 382.19 97.4572L368.064 100.113L371.078 110.586L385.204 107.93C385.387 107.896 385.505 107.968 385.557 108.147L387.809 115.72C387.86 115.899 387.794 116.006 387.611 116.041L373.416 118.71L376.797 130.458L390.992 127.789C391.176 127.755 391.3 127.849 391.364 128.073L393.567 135.727C393.618 135.906 393.552 136.012 393.369 136.047L371.112 140.232Z" fill="white"/>
<path d="M401.301 133.225C401.071 133.266 400.927 133.174 400.868 132.949L388.987 86.4545C388.94 86.2741 389.009 86.1675 389.193 86.1346L402.081 83.7594C404.6 83.2618 407.052 83.4367 409.438 84.284C411.869 85.1232 413.974 86.4688 415.753 88.321C417.52 90.1281 418.725 92.2718 419.366 94.752L424.388 114.165C425.064 116.78 425.038 119.286 424.31 121.68C423.57 124.03 422.282 126.03 420.446 127.679C418.61 129.328 416.34 130.418 413.637 130.949L401.301 133.225ZM407.224 123.462L411.503 122.696C413.205 122.392 414.48 121.551 415.327 120.173C416.22 118.786 416.456 117.282 416.037 115.658L410.998 96.1775C410.625 94.7345 409.752 93.5931 408.379 92.7534C407.041 91.8603 405.642 91.568 404.181 91.8763L399.367 92.8077L407.224 123.462Z" fill="white"/>
<path d="M444.446 128.915C441.974 129.056 439.622 128.561 437.391 127.43C435.155 126.253 433.294 124.634 431.809 122.574C430.37 120.512 429.516 118.206 429.245 115.657L425.701 80.8883C425.681 80.7029 425.765 80.6049 425.951 80.5942L433.786 80.1455C433.973 80.1348 434.076 80.2221 434.096 80.4075L437.78 115.168C437.947 116.744 438.579 118.06 439.677 119.116C440.816 120.123 442.108 120.585 443.554 120.503C445.046 120.417 446.226 119.813 447.092 118.691C448 117.52 448.371 116.147 448.204 114.571L444.519 79.8105C444.5 79.6251 444.583 79.5271 444.77 79.5164L452.605 79.0676C452.792 79.0569 452.895 79.1443 452.914 79.3297L456.739 114.082C457.014 116.678 456.635 119.077 455.601 121.281C454.615 123.483 453.139 125.269 451.172 126.641C449.253 128.01 447.011 128.768 444.446 128.915Z" fill="white"/>
<path d="M474.509 129.487C471.945 129.338 469.64 128.574 467.593 127.193C465.595 125.769 464.033 123.95 462.907 121.736C461.781 119.522 461.272 117.087 461.378 114.43L462.324 92.6241C462.427 90.061 463.103 87.7647 464.352 85.7353C465.65 83.662 467.35 82.0559 469.451 80.9168C471.601 79.7339 473.958 79.2169 476.521 79.366C479.085 79.515 481.366 80.2783 483.367 81.6558C485.367 83.0333 486.93 84.8291 488.056 87.0433C489.183 89.2109 489.695 91.5996 489.59 94.2093L489.461 97.4249C489.453 97.6113 489.356 97.6991 489.17 97.6883L481.34 97.233C481.153 97.2222 481.064 97.1236 481.071 96.9372L481.2 93.7216C481.262 92.1837 480.803 90.8257 479.822 89.6476C478.888 88.4722 477.676 87.8412 476.184 87.7545C474.506 87.6569 473.201 88.1649 472.269 89.2785C471.338 90.3455 470.843 91.6246 470.783 93.1159L469.908 114.926C469.839 116.65 470.272 118.077 471.208 119.206C472.19 120.337 473.404 120.945 474.848 121.029C476.34 121.116 477.598 120.605 478.624 119.497C479.698 118.345 480.265 117.023 480.325 115.532L480.454 112.316C480.461 112.13 480.558 112.042 480.745 112.053L488.645 112.512C488.831 112.523 488.921 112.622 488.913 112.808L488.784 116.024C488.678 118.68 487.952 121.043 486.608 123.114C485.31 125.187 483.609 126.817 481.506 128.002C479.405 129.141 477.072 129.636 474.509 129.487Z" fill="white"/>
<path d="M488.811 129.531L506.013 83.6701C506.093 83.4942 506.224 83.4219 506.408 83.4532L516.414 85.1532C516.598 85.1845 516.696 85.2958 516.708 85.4873L516.273 134.197C516.277 134.435 516.164 134.534 515.934 134.495L508.275 133.194C508.091 133.162 507.997 133.028 507.993 132.791L508.153 127.634L498.769 126.039L497.091 130.938C497.003 131.16 496.867 131.255 496.683 131.224L489.024 129.922C488.84 129.891 488.769 129.761 488.811 129.531ZM501.495 118.905L508.119 120.03L508.827 100.196L508.878 97.5779L508.137 100.079L501.495 118.905Z" fill="white"/>
<path d="M530.629 139.28C528.164 138.574 526.121 137.334 524.501 135.56C522.941 133.754 521.917 131.665 521.429 129.292C520.941 126.92 521.117 124.47 521.957 121.944L528.919 101.219C529.729 98.7815 531.026 96.7257 532.81 95.052C534.654 93.3468 536.761 92.1782 539.131 91.5461C541.561 90.8826 544.009 90.9038 546.475 91.6097C548.94 92.3155 550.961 93.5492 552.536 95.3107C554.11 97.0721 555.142 99.1392 555.63 101.512C556.132 103.84 555.971 106.245 555.146 108.727L554.13 111.786C554.071 111.963 553.952 112.026 553.772 111.975L546.24 109.819C546.061 109.767 546.001 109.653 546.06 109.476L547.076 106.417C547.563 104.955 547.489 103.55 546.857 102.204C546.269 100.871 545.257 99.9987 543.823 99.588C542.209 99.126 540.792 99.3271 539.572 100.191C538.366 101.011 537.528 102.13 537.056 103.549L530.161 124.293C529.616 125.932 529.645 127.397 530.248 128.686C530.895 129.988 531.914 130.838 533.303 131.235C534.738 131.646 536.11 131.432 537.42 130.594C538.789 129.724 539.71 128.579 540.181 127.161L541.198 124.103C541.257 123.925 541.376 123.862 541.555 123.914L549.154 126.089C549.334 126.14 549.394 126.255 549.335 126.432L548.318 129.49C547.479 132.017 546.115 134.126 544.226 135.819C542.383 137.524 540.269 138.715 537.884 139.391C535.513 140.023 533.095 139.986 530.629 139.28Z" fill="white"/>
<path d="M547.576 143.762C547.358 143.678 547.298 143.531 547.396 143.318L567.57 99.5841C567.648 99.4143 567.774 99.3628 567.948 99.4297L575.257 102.24C575.431 102.307 575.479 102.425 575.401 102.595L555.358 146.379C555.261 146.591 555.125 146.664 554.951 146.597L547.576 143.762Z" fill="white"/>
<path d="M573.092 152.394C570.833 151.285 569.087 149.727 567.852 147.72C566.684 145.694 566.075 143.5 566.026 141.141C566 138.741 566.648 136.437 567.968 134.231L579.443 115.183C580.763 112.976 582.507 111.237 584.674 109.965C586.884 108.714 589.254 108.008 591.784 107.849C594.314 107.689 596.688 108.153 598.905 109.241C601.164 110.349 602.889 111.897 604.082 113.883C605.274 115.87 605.874 118.033 605.882 120.372C605.931 122.732 605.296 125.015 603.976 127.222L592.626 146.331C591.306 148.538 589.529 150.287 587.296 151.579C585.128 152.85 582.767 153.586 580.213 153.786C577.724 153.966 575.351 153.502 573.092 152.394ZM577.448 145.111C578.703 145.727 580.079 145.779 581.575 145.268C583.137 144.737 584.29 143.849 585.034 142.606L596.384 123.496C597.176 122.172 597.408 120.833 597.082 119.479C596.756 118.125 595.923 117.12 594.585 116.463C593.288 115.827 591.903 115.744 590.431 116.216C588.983 116.647 587.851 117.544 587.035 118.909L575.622 137.987C574.83 139.311 574.606 140.68 574.951 142.095C575.319 143.469 576.151 144.475 577.448 145.111Z" fill="white"/>
<path d="M591.262 162.073C590.924 161.914 590.84 161.694 591.009 161.414L615.549 120.45C615.742 120.129 616.007 120.049 616.344 120.207L622.035 122.889L618.485 151.607L632.115 128.256C632.307 127.936 632.594 127.865 632.973 128.044L639.232 130.993C639.485 131.113 639.515 131.333 639.323 131.653L614.746 172.677C614.602 172.918 614.424 172.988 614.213 172.889L608.649 170.267L611.006 142.992L598.442 164.84C598.25 165.16 597.964 165.231 597.584 165.053L591.262 162.073Z" fill="white"/>
<path d="M179.467 719.294L214.517 668.269L229.479 681.382L194.429 732.408L179.467 719.294Z" fill="white"/>
<path d="M247.368 769.16L239.321 728.15L225.612 754.894L210.33 744.873L238.57 689.783L253.099 699.31L260.94 740.721L274.855 713.577L290.137 723.598L261.897 778.688L247.368 769.16Z" fill="white"/>
<path d="M322.178 735.928C329.473 739.015 334.963 743.092 338.647 748.157C342.35 753.165 343.272 758.684 341.412 764.714L341.074 765.74L323.914 758.476L324.027 758.135C324.59 756.425 324.451 754.743 323.611 753.089C322.77 751.435 321.106 750.082 318.619 749.029C316.188 748 314.187 747.575 312.616 747.754C311.101 747.957 310.166 748.599 309.809 749.682C309.302 751.22 309.811 752.734 311.336 754.224C312.86 755.713 315.453 757.687 319.114 760.145C323.382 763.056 326.803 765.672 329.375 767.994C332.022 770.283 334.056 773.092 335.479 776.421C336.901 779.75 336.965 783.477 335.669 787.603C333.38 794.554 329.388 798.74 323.694 800.161C318.055 801.604 311.422 800.712 303.796 797.484C294.898 793.718 288.469 789.244 284.508 784.061C280.603 778.903 279.936 772.42 282.506 764.614L299.832 771.947C298.856 774.91 298.946 777.22 300.1 778.878C301.273 780.478 303.435 781.945 306.585 783.278C308.906 784.26 310.897 784.811 312.558 784.93C314.274 785.072 315.395 784.345 315.921 782.75C316.39 781.325 315.88 779.909 314.392 778.5C312.978 777.057 310.496 775.13 306.945 772.718C302.641 769.728 299.147 767.048 296.464 764.679C293.8 762.253 291.757 759.278 290.335 755.755C288.914 752.232 288.926 748.276 290.37 743.889C292.491 737.45 296.452 733.738 302.255 732.753C308.132 731.735 314.773 732.793 322.178 735.928Z" fill="white"/>
<path d="M385.176 772.729L377.087 818.089L357.707 813.603L365.796 768.244L345.978 763.656L348.758 748.064L407.688 761.704L404.907 777.296L385.176 772.729Z" fill="white"/>
<path d="M410.887 761.434L464.368 764.188L463.821 779.027L430.205 777.297L429.89 785.841L458.653 787.321L458.129 801.531L429.366 800.051L429.019 809.494L463.265 811.257L462.718 826.096L408.608 823.311L410.887 761.434Z" fill="white"/>
<path d="M498.288 758.799C507.386 757.581 514.831 758.914 520.622 762.799C526.408 766.624 529.76 772.772 530.681 781.243L511.86 783.762C511.471 780.183 510.212 777.477 508.082 775.644C506.012 773.803 503.252 773.113 499.803 773.574C495.819 774.108 493.011 775.754 491.381 778.514C489.809 781.267 489.267 784.88 489.753 789.353L490.375 795.08C490.855 799.494 492.156 802.861 494.278 805.179C496.453 807.429 499.474 808.296 503.339 807.779C507.145 807.269 509.922 805.899 511.67 803.668C513.419 801.437 514.099 798.532 513.71 794.953L531.906 792.517C532.82 800.928 530.934 807.717 526.246 812.883C521.618 818.041 514.607 821.249 505.211 822.507C494.745 823.908 486.515 822.286 480.52 817.641C474.584 812.989 471.046 805.414 469.905 794.915C468.764 784.416 470.578 776.124 475.347 770.039C480.175 763.946 487.822 760.199 498.288 758.799Z" fill="white"/>
<path d="M557.618 746.023C578.152 739.142 591.077 745.675 596.392 765.622C601.707 785.568 594.097 798.982 573.563 805.863L548.136 814.383L532.192 754.543L557.618 746.023ZM563.169 793.713L569.397 791.626C577.304 788.977 580.106 783.332 577.804 774.692L576.414 769.474C574.112 760.834 569.007 757.839 561.101 760.488L554.872 762.576L563.169 793.713Z" fill="white"/>
<path d="M593.136 733.124L640.069 707.364L645.98 720.99L616.479 737.182L619.883 745.027L645.124 731.173L650.785 744.221L625.543 758.075L629.305 766.746L659.358 750.251L665.269 763.877L617.784 789.94L593.136 733.124Z" fill="white"/>
<path d="M719.757 723.086L707.571 704.38C706.064 702.066 704.594 699.646 703.16 697.117C701.74 694.5 700.582 692.286 699.686 690.473C698.79 688.661 698.217 687.509 697.969 687.018L697.691 687.248L711.785 729.682L699.791 739.604L668.069 711.872L667.792 712.101C668.133 712.515 668.936 713.476 670.202 714.982C671.481 716.4 673.016 718.265 674.806 720.576C676.563 722.836 678.195 725.123 679.702 727.437L691.888 746.143L677.815 757.786L644.009 705.891L665.639 687.996L692.356 711.976L692.633 711.747L680.266 675.894L701.133 658.63L734.939 710.525L719.757 723.086Z" fill="white"/>
</g>
<defs>
<clipPath id="clip0">
<rect width="898" height="879" fill="white"/>
</clipPath>
</defs>
</svg>
